:FULLY-SPECIFIED
:FORCE-ALL-JOINTS-BE-3DOF
:DEGREES
815
root 2.62061 16.4396 23.0733 -10.3763 52.4359 -9.25237
lfemur -26.8833 10.3831 -15.8964
ltibia 44.1273 -0 0
lfoot -15.1869 0.818953 -1.67593
ltoes 19.3199 -0 0
rfemur -33.9036 -13.319 17.8093
rtibia 50.2403 -0 0
rfoot -8.90558 -18.2157 1.61064
rtoes -20.6504 0 0
lowerback 6.13848 2.00243 -2.2278
upperback 1.3311 2.57183 -2.61166
thorax -1.80114 1.26744 -1.37277
lowerneck -5.94014 -5.23472 0.617335
upperneck 1.72547 -7.1724 4.33926
head 1.76734 -3.43086 1.05761
lclavicle 1.16087e-15 6.29483e-15 3.69353e-31
lhumerus -47.7434 -16.9022 89.5277
lradius 64.8238 -0 0
lwrist 17.077 0 0
lhand -8.83713 -1.24919 0.58773
lfingers 7.12502 -0 0
lthumb 17.0542 27.3858 0.375057
rclavicle 1.16087e-15 6.29483e-15 3.69353e-31
rhumerus -32.1739 24.8518 -86.1122
rradius 68.4356 -0 0
rwrist 3.92332 0 0
rhand -16.8157 -24.1643 -0.353157
rfingers 7.12502 -0 0
rthumb 9.40551 -53.7664 -0.310087
816
root 2.64908 16.4421 23.2022 -10.4143 51.7235 -9.06907
lfemur -26.6012 10.3027 -15.9516
ltibia 43.9469 -0 0
lfoot -14.987 0.250364 -1.68884
ltoes 19.4102 -0 0
rfemur -34.4249 -13.0666 17.6612
rtibia 50.189 -0 0
rfoot -8.641 -17.8049 1.62298
rtoes -20.5207 0 0
lowerback 6.2819 1.9276 -2.26901
upperback 1.39364 2.4668 -2.57947
thorax -1.81828 1.21471 -1.31069
lowerneck -5.95704 -5.19409 0.654159
upperneck 1.84541 -7.12658 4.31832
head 1.80666 -3.40578 1.04482
lclavicle 1.02365e-15 6.47469e-15 3.72153e-31
lhumerus -47.5034 -17.0415 89.3634
lradius 64.6578 -0 0
lwrist 17.1957 0 0
lhand -8.48111 -1.13827 0.592213
lfingers 7.12502 -0 0
lthumb 17.3959 27.4596 0.377915
rclavicle 1.02365e-15 6.47469e-15 3.72153e-31
rhumerus -32.3843 24.2075 -85.4301
rradius 68.1019 -0 0
rwrist 3.86616 0 0
rhand -16.6129 -24.2809 -0.35584
rfingers 7.12502 -0 0
rthumb 9.60111 -53.8726 -0.312443
817
root 2.67756 16.4446 23.3311 -10.4553 51.0111 -8.88784
lfemur -26.3191 10.2225 -16.0072
ltibia 43.7666 -0 0
lfoot -14.787 -0.318269 -1.69977
ltoes 19.5004 -0 0
rfemur -34.9465 -12.8155 17.5109
rtibia 50.1377 -0 0
rfoot -8.37633 -17.3941 1.63342
rtoes -20.3909 0 0
lowerback 6.42536 1.85288 -2.3104
upperback 1.45612 2.36173 -2.5474
thorax -1.83549 1.162 -1.2486
lowerneck -5.97391 -5.15344 0.690969
upperneck 1.96532 -7.08071 4.29746
head 1.84599 -3.38069 1.03205
lclavicle 8.86435e-16 6.65454e-15 3.74522e-31
lhumerus -47.2628 -17.1802 89.1984
lradius 64.4918 -0 0
lwrist 17.3144 0 0
lhand -8.12509 -1.02732 0.596006
lfingers 7.12502 -0 0
lthumb 17.7376 27.5333 0.380334
rclavicle 8.86435e-16 6.65454e-15 3.74522e-31
rhumerus -32.602 23.5655 -84.7488
rradius 67.7682 -0 0
rwrist 3.809 0 0
rhand -16.41 -24.3975 -0.358111
rfingers 7.12502 -0 0
rthumb 9.79672 -53.9787 -0.314436
818
root 2.70603 16.4471 23.46 -10.4992 50.2989 -8.70855
lfemur -26.0369 10.1426 -16.0632
ltibia 43.5862 -0 0
lfoot -14.5869 -0.88694 -1.70871
ltoes 19.5906 -0 0
rfemur -35.4681 -12.5658 17.3585
rtibia 50.0864 -0 0
rfoot -8.11159 -16.9832 1.64196
rtoes -20.2611 0 0
lowerback 6.56888 1.77827 -2.35197
upperback 1.51854 2.25663 -2.51545
thorax -1.85275 1.10931 -1.18649
lowerneck -5.99075 -5.11278 0.727765
upperneck 2.08519 -7.0348 4.27671
head 1.8853 -3.35559 1.01929
lclavicle 7.49216e-16 6.83439e-15 3.7646e-31
lhumerus -47.0216 -17.3182 89.0327
lradius 64.3258 -0 0
lwrist 17.4331 0 0
lhand -7.76906 -0.916355 0.599109
lfingers 7.12502 -0 0
lthumb 18.0792 27.607 0.382313
rclavicle 7.49216e-16 6.83439e-15 3.7646e-31
rhumerus -32.8269 22.9259 -84.0682
rradius 67.4345 -0 0
rwrist 3.75184 0 0
rhand -16.2071 -24.514 -0.359969
rfingers 7.12502 -0 0
rthumb 9.99233 -54.0849 -0.316067
819
root 2.7345 16.4496 23.5889 -10.5459 49.5867 -8.53104
lfemur -25.7548 10.0629 -16.1196
ltibia 43.4058 -0 0
lfoot -14.3867 -1.45564 -1.71566
ltoes 19.6808 -0 0
rfemur -35.99 -12.3174 17.2038
rtibia 50.0351 -0 0
rfoot -7.8468 -16.5723 1.64861
rtoes -20.1314 0 0
lowerback 6.71244 1.70376 -2.39373
upperback 1.5809 2.1515 -2.48361
thorax -1.87007 1.05665 -1.12437
lowerneck -6.00756 -5.07211 0.764546
upperneck 2.20504 -6.98885 4.25606
head 1.92461 -3.33049 1.00655
lclavicle 6.11997e-16 7.01424e-15 3.77968e-31
lhumerus -46.7798 -17.4556 88.8662
lradius 64.1598 -0 0
lwrist 17.5518 0 0
lhand -7.41302 -0.80537 0.601523
lfingers 7.12502 -0 0
lthumb 18.4209 27.6807 0.383852
rclavicle 6.11997e-16 7.01424e-15 3.77968e-31
rhumerus -33.059 22.2888 -83.3879
rradius 67.1007 -0 0
rwrist 3.69469 0 0
rhand -16.0042 -24.6306 -0.361414
rfingers 7.12502 -0 0
rthumb 10.1879 -54.191 -0.317335
820
root 2.76298 16.4521 23.7178 -10.5953 48.8747 -8.35519
lfemur -25.4726 9.98356 -16.1764
ltibia 43.2254 -0 0
lfoot -14.1865 -2.02436 -1.72063
ltoes 19.771 -0 0
rfemur -36.5121 -12.0704 17.047
rtibia 49.9837 -0 0
rfoot -7.58196 -16.1614 1.65336
rtoes -20.0016 0 0
lowerback 6.85605 1.62935 -2.43568
upperback 1.64319 2.04633 -2.45189
thorax -1.88744 1.00399 -1.06223
lowerneck -6.02435 -5.03143 0.801313
upperneck 2.32487 -6.94285 4.2355
head 1.96392 -3.30537 0.99383
lclavicle 4.74778e-16 7.1941e-15 3.79045e-31
lhumerus -46.5374 -17.5923 88.6991
lradius 63.9938 -0 0
lwrist 17.6705 0 0
lhand -7.05698 -0.694372 0.603248
lfingers 7.12502 -0 0
lthumb 18.7626 27.7545 0.384952
rclavicle 4.74778e-16 7.1941e-15 3.79045e-31
rhumerus -33.2981 21.6543 -82.708
rradius 66.767 -0 0
rwrist 3.63753 0 0
rhand -15.8013 -24.7472 -0.362446
rfingers 7.12502 -0 0
rthumb 10.3836 -54.2972 -0.318241
821
root 2.79145 16.4546 23.8467 -10.6473 48.1627 -8.18088
lfemur -25.1904 9.90447 -16.2336
ltibia 43.045 -0 0
lfoot -13.9862 -2.5931 -1.72361
ltoes 19.8612 -0 0
rfemur -37.0343 -11.8248 16.888
rtibia 49.9324 -0 0
rfoot -7.3171 -15.7504 1.65621
rtoes -19.8719 0 0
lowerback 6.99971 1.55505 -2.47781
upperback 1.70542 1.94112 -2.42029
thorax -1.90488 0.951362 -1.00008
lowerneck -6.04111 -4.99074 0.838066
upperneck 2.44466 -6.89681 4.21505
head 2.00322 -3.28024 0.981126
lclavicle 3.37559e-16 7.37395e-15 3.79691e-31
lhumerus -46.2944 -17.7283 88.5311
lradius 63.8278 -0 0
lwrist 17.7892 0 0
lhand -6.70094 -0.583366 0.604283
lfingers 7.12502 -0 0
lthumb 19.1043 27.8282 0.385611
rclavicle 3.37559e-16 7.37395e-15 3.79691e-31
rhumerus -33.5443 21.0224 -82.0281
rradius 66.4333 -0 0
rwrist 3.58037 0 0
rhand -15.5984 -24.8638 -0.363065
rfingers 7.12502 -0 0
rthumb 10.5792 -54.4033 -0.318785
822
root 2.81993 16.4572 23.9757 -10.7018 47.4509 -8.00798
lfemur -24.9082 9.82565 -16.2911
ltibia 42.8646 -0 0
lfoot -13.7859 -3.16185 -1.7246
ltoes 19.9514 -0 0
rfemur -37.5568 -11.5807 16.7269
rtibia 49.8811 -0 0
rfoot -7.05222 -15.3395 1.65716
rtoes -19.7421 0 0
lowerback 7.14342 1.48085 -2.52012
upperback 1.76759 1.83588 -2.38881
thorax -1.92237 0.898749 -0.937907
lowerneck -6.05784 -4.95004 0.874805
upperneck 2.56442 -6.85073 4.19469
head 2.04251 -3.25511 0.96844
lclavicle 2.0034e-16 7.5538e-15 3.79906e-31
lhumerus -46.0508 -17.8636 88.3625
lradius 63.6619 -0 0
lwrist 17.9079 0 0
lhand -6.3449 -0.472355 0.604627
lfingers 7.12502 -0 0
lthumb 19.446 27.902 0.385831
rclavicle 2.0034e-16 7.5538e-15 3.79906e-31
rhumerus -33.7974 20.3934 -81.3482
rradius 66.0996 -0 0
rwrist 3.52321 0 0
rhand -15.3955 -24.9804 -0.363272
rfingers 7.12502 -0 0
rthumb 10.7748 -54.5095 -0.318966
823
root 2.8484 16.4597 24.1046 -10.7587 46.7392 -7.83639
lfemur -24.626 9.74712 -16.349
ltibia 42.6842 -0 0
lfoot -13.5856 -3.7306 -1.72361
ltoes 20.0417 -0 0
rfemur -38.0796 -11.338 16.5637
rtibia 49.8298 -0 0
rfoot -6.78734 -14.9285 1.65621
rtoes -19.6123 0 0
lowerback 7.28718 1.40676 -2.56262
upperback 1.8297 1.73061 -2.35744
thorax -1.93991 0.846155 -0.875724
lowerneck -6.07455 -4.90933 0.911529
upperneck 2.68416 -6.80461 4.17443
head 2.08179 -3.22997 0.955772
lclavicle 6.3121e-17 7.73365e-15 3.79691e-31
lhumerus -45.8066 -17.9982 88.1931
lradius 63.4959 -0 0
lwrist 18.0267 0 0
lhand -5.98885 -0.361344 0.604283
lfingers 7.12502 -0 0
lthumb 19.7877 27.9758 0.385611
rclavicle 6.3121e-17 7.73365e-15 3.79691e-31
rhumerus -34.0575 19.7672 -80.6681
rradius 65.7658 -0 0
rwrist 3.46605 0 0
rhand -15.1926 -25.097 -0.363065
rfingers 7.12502 -0 0
rthumb 10.9704 -54.6157 -0.318785
824
root 2.87687 16.4622 24.2335 -10.8179 46.0276 -7.66601
lfemur -24.3438 9.66886 -16.4073
ltibia 42.5038 -0 0
lfoot -13.3853 -4.29934 -1.72063
ltoes 20.1319 -0 0
rfemur -38.6026 -11.0968 16.3983
rtibia 49.7785 -0 0
rfoot -6.52248 -14.5176 1.65336
rtoes -19.4826 0 0
lowerback 7.43099 1.33278 -2.60531
upperback 1.89175 1.62531 -2.32618
thorax -1.95751 0.79358 -0.813525
lowerneck -6.09122 -4.86861 0.948239
upperneck 2.80387 -6.75845 4.15428
head 2.12107 -3.20482 0.943121
lclavicle -7.40981e-17 7.9135e-15 3.79045e-31
lhumerus -45.5618 -18.1322 88.023
lradius 63.3299 -0 0
lwrist 18.1454 0 0
lhand -5.63281 -0.250338 0.603248
lfingers 7.12502 -0 0
lthumb 20.1294 28.0495 0.384952
rclavicle -7.40981e-17 7.9135e-15 3.79045e-31
rhumerus -34.3244 19.1439 -79.9875
rradius 65.4321 -0 0
rwrist 3.40889 0 0
rhand -14.9897 -25.2136 -0.362446
rfingers 7.12502 -0 0
rthumb 11.166 -54.7218 -0.318241
825
root 2.90535 16.4647 24.3624 -10.8794 45.3161 -7.49673
lfemur -24.0616 9.59089 -16.466
ltibia 42.3234 -0 0
lfoot -13.185 -4.86806 -1.71566
ltoes 20.2221 -0 0
rfemur -39.1259 -10.857 16.2309
rtibia 49.7271 -0 0
rfoot -6.25764 -14.1066 1.64861
rtoes -19.3528 0 0
lowerback 7.57485 1.2589 -2.64818
upperback 1.95374 1.51997 -2.29504
thorax -1.97517 0.741024 -0.751311
lowerneck -6.10787 -4.82787 0.984935
upperneck 2.92355 -6.71224 4.13422
head 2.16034 -3.17966 0.930488
lclavicle -2.11317e-16 8.09336e-15 3.77968e-31
lhumerus -45.3164 -18.2654 87.8521
lradius 63.1639 -0 0
lwrist 18.2641 0 0
lhand -5.27677 -0.13934 0.601523
lfingers 7.12502 -0 0
lthumb 20.4711 28.1233 0.383852
rclavicle -2.11317e-16 8.09336e-15 3.77968e-31
rhumerus -34.598 18.5237 -79.3064
rradius 65.0984 -0 0
rwrist 3.35173 0 0
rhand -14.7868 -25.3302 -0.361414
rfingers 7.12502 -0 0
rthumb 11.3616 -54.828 -0.317335
